<?xml version="1.0" encoding="UTF-8" standalone="no"?>
<!-- Created with Inkscape (http://www.inkscape.org/) -->

<svg
   xmlns:dc="http://purl.org/dc/elements/1.1/"
   xmlns:cc="http://creativecommons.org/ns#"
   xmlns:rdf="http://www.w3.org/1999/02/22-rdf-syntax-ns#"
   xmlns:svg="http://www.w3.org/2000/svg"
   xmlns="http://www.w3.org/2000/svg"
   xmlns:sodipodi="http://sodipodi.sourceforge.net/DTD/sodipodi-0.dtd"
   xmlns:inkscape="http://www.inkscape.org/namespaces/inkscape"
   width="210mm"
   height="297mm"
   viewBox="0 0 744.09448819 1052.3622047"
   id="svg2"
   version="1.1"
   inkscape:version="0.91 r13725"
   sodipodi:docname="jpmena.svg">
  <defs
     id="defs4" />
  <sodipodi:namedview
     id="base"
     pagecolor="#ffffff"
     bordercolor="#666666"
     borderopacity="1.0"
     inkscape:pageopacity="0.0"
     inkscape:pageshadow="2"
     inkscape:zoom="0.98994949"
     inkscape:cx="268.53438"
     inkscape:cy="620.13554"
     inkscape:document-units="px"
     inkscape:current-layer="layer1"
     showgrid="false"
     inkscape:window-width="1920"
     inkscape:window-height="1031"
     inkscape:window-x="0"
     inkscape:window-y="27"
     inkscape:window-maximized="1"
     inkscape:snap-grids="true" />
  <metadata
     id="metadata7">
    <rdf:RDF>
      <cc:Work
         rdf:about="">
        <dc:format>image/svg+xml</dc:format>
        <dc:type
           rdf:resource="http://purl.org/dc/dcmitype/StillImage" />
        <dc:title />
      </cc:Work>
    </rdf:RDF>
  </metadata>
  <g
     inkscape:groupmode="layer"
     id="layer3"
     inkscape:label="logo world" />
  <g
     inkscape:label="titre"
     inkscape:groupmode="layer"
     id="layer1"
     style="display:inline">
    <g
       id="g4154"
       inkscape:export-xdpi="409.82251"
       inkscape:export-ydpi="409.82251">
      <g
         inkscape:export-ydpi="102.45563"
         inkscape:export-xdpi="102.45563"
         style="fill:#1ab100;fill-opacity:1"
         transform="matrix(0.05647454,0,0,0.05647454,333.71588,384.00676)"
         id="g4550">
        <path
           style="fill:#1ab100;fill-opacity:1"
           inkscape:connector-curvature="0"
           d="m 432.5,227.5 -77.031,0 c -0.611,-37.438 -5.782,-73.616 -14.771,-105.694 l 50.518,0 c 4.143,0 7.5,-3.357 7.5,-7.5 0,-4.143 -3.357,-7.5 -7.5,-7.5 l -55.112,0 C 328.086,82.641 317.788,61.285 305.551,44.15 c -2.408,-3.371 -7.093,-4.153 -10.462,-1.745 -3.371,2.407 -4.152,7.092 -1.745,10.462 10.618,14.868 19.688,33.199 26.965,53.939 l -77.809,0 0,-69.306 c 0,-4.143 -3.357,-7.5 -7.5,-7.5 -4.143,0 -7.5,3.357 -7.5,7.5 l 0,69.306 -77.81,0 c 7.277,-20.74 16.347,-39.071 26.965,-53.939 2.407,-3.37 1.626,-8.055 -1.745,-10.462 -3.372,-2.407 -8.055,-1.625 -10.462,1.745 -12.237,17.135 -22.535,38.492 -30.553,62.656 l -55.112,0 c -4.143,0 -7.5,3.357 -7.5,7.5 0,4.143 3.357,7.5 7.5,7.5 l 50.518,0 c -8.988,32.078 -14.159,68.256 -14.771,105.694 l -77.03,0 c -4.143,0 -7.5,3.357 -7.5,7.5 0,4.143 3.357,7.5 7.5,7.5 l 77.031,0 c 0.611,37.438 5.782,73.616 14.771,105.694 l -50.519,0 c -4.143,0 -7.5,3.357 -7.5,7.5 0,4.143 3.357,7.5 7.5,7.5 l 55.112,0 c 8.019,24.169 18.32,45.529 30.56,62.666 1.464,2.049 3.77,3.142 6.11,3.142 1.508,0 3.031,-0.454 4.353,-1.397 3.37,-2.408 4.151,-7.092 1.744,-10.463 -10.621,-14.869 -19.693,-33.204 -26.972,-53.947 l 77.81,0 0,69.305 c 0,4.143 3.357,7.5 7.5,7.5 4.143,0 7.5,-3.357 7.5,-7.5 l 0,-69.306 77.81,0 c -7.278,20.744 -16.351,39.078 -26.972,53.947 -2.407,3.371 -1.626,8.055 1.744,10.463 1.321,0.943 2.844,1.397 4.353,1.397 2.341,0 4.646,-1.093 6.11,-3.142 12.24,-17.137 22.54,-38.497 30.56,-62.666 l 55.112,0 c 4.143,0 7.5,-3.357 7.5,-7.5 0,-4.143 -3.357,-7.5 -7.5,-7.5 l -50.519,0 c 8.989,-32.078 14.16,-68.256 14.771,-105.694 l 77.031,0 c 4.143,0 7.5,-3.357 7.5,-7.5 0,-4.143 -3.357,-7.499 -7.5,-7.499 z M 325.14,121.806 c 9.313,31.683 14.695,67.958 15.326,105.694 l -97.966,0 0,-105.694 82.64,0 z m -180.28,0 82.64,0 0,105.694 -97.966,0 c 0.632,-37.737 6.013,-74.011 15.326,-105.694 z m 0,226.388 C 135.547,316.511 130.165,280.236 129.534,242.5 l 97.966,0 0,105.694 -82.64,0 z m 180.28,0 -82.64,0 0,-105.694 97.966,0 c -0.632,37.737 -6.013,74.012 -15.326,105.694 z"
           id="path4552" />
        <path
           style="fill:#1ab100;fill-opacity:1"
           inkscape:connector-curvature="0"
           d="M 401.17,68.83 C 356.784,24.444 297.771,0 235,0 172.229,0 113.216,24.444 68.83,68.83 24.444,113.216 0,172.229 0,235.001 0,281.272 13.391,325.9 38.764,364.317 l -28.718,86.148 c -0.898,2.695 -0.197,5.667 1.812,7.676 2.009,2.008 4.979,2.708 7.676,1.812 l 86.15,-28.716 C 144.102,456.609 188.729,470 235,470 297.771,470 356.784,445.556 401.17,401.17 445.556,356.784 470,297.771 470,235.001 470,172.229 445.556,113.216 401.17,68.83 Z M 235,455 c -44.491,0 -87.355,-13.222 -123.961,-38.235 -1.262,-0.862 -2.739,-1.308 -4.231,-1.308 -0.797,0 -1.598,0.127 -2.372,0.385 L 29.02,440.979 54.16,365.565 c 0.741,-2.225 0.399,-4.668 -0.923,-6.604 C 28.222,322.357 15,279.492 15,235.001 15,113.692 113.691,15 235,15 356.309,15 455,113.692 455,235.001 455,356.309 356.309,455 235,455 Z"
           id="path4554" />
      </g>
      <text
         inkscape:export-ydpi="102.45563"
         inkscape:export-xdpi="102.45563"
         transform="matrix(1.1061262,0.02259824,-0.18092444,0.90035967,0,0)"
         sodipodi:linespacing="125%"
         id="text4167"
         y="458.7962"
         x="243.18053"
         style="font-style:normal;font-weight:normal;font-size:40.68362427px;line-height:125%;font-family:sans-serif;letter-spacing:0px;word-spacing:0px;fill:#1225ce;fill-opacity:1;stroke:none;stroke-width:1px;stroke-linecap:butt;stroke-linejoin:miter;stroke-opacity:1"
         xml:space="preserve"><tspan
           style="font-size:24.43362427px;fill:#1225ce;fill-opacity:1"
           y="458.7962"
           x="243.18053"
           id="tspan4169"
           sodipodi:role="line">jpmena.eu</tspan></text>
    </g>
    <flowRoot
       xml:space="preserve"
       id="flowRoot4565"
       style="fill:black;stroke:none;stroke-opacity:1;stroke-width:1px;stroke-linejoin:miter;stroke-linecap:butt;fill-opacity:1;font-family:sans-serif;font-style:normal;font-weight:normal;font-size:40px;line-height:125%;letter-spacing:0px;word-spacing:0px"><flowRegion
         id="flowRegion4567"><rect
           id="rect4569"
           width="442.44681"
           height="118.18785"
           x="447.49759"
           y="82.615761" /></flowRegion><flowPara
         id="flowPara4571" /></flowRoot>  </g>
</svg>
